<?xml version="1.0" encoding="UTF-8" standalone="no"?>
<svg
   xmlns:dc="http://purl.org/dc/elements/1.1/"
   xmlns:cc="http://creativecommons.org/ns#"
   xmlns:rdf="http://www.w3.org/1999/02/22-rdf-syntax-ns#"
   xmlns:svg="http://www.w3.org/2000/svg"
   xmlns="http://www.w3.org/2000/svg"
   xmlns:sodipodi="http://sodipodi.sourceforge.net/DTD/sodipodi-0.dtd"
   xmlns:inkscape="http://www.inkscape.org/namespaces/inkscape"
   version="1.0"
   width="500.000000pt"
   height="500.000000pt"
   viewBox="0 0 500.000000 500.000000"
   preserveAspectRatio="xMidYMid meet"
   id="svg59"
   sodipodi:docname="safari-pinned-tab (copy).svg"
   inkscape:version="0.92.3 (2405546, 2018-03-11)">
  <defs
     id="defs63" />
  <sodipodi:namedview
     pagecolor="#ffffff"
     bordercolor="#666666"
     borderopacity="1"
     objecttolerance="10"
     gridtolerance="10"
     guidetolerance="10"
     inkscape:pageopacity="0"
     inkscape:pageshadow="2"
     inkscape:window-width="1853"
     inkscape:window-height="1025"
     id="namedview61"
     showgrid="false"
     inkscape:zoom="1.266"
     inkscape:cx="333.33333"
     inkscape:cy="333.33333"
     inkscape:window-x="67"
     inkscape:window-y="27"
     inkscape:window-maximized="1"
     inkscape:current-layer="svg59" />
  <metadata
     id="metadata53">
Created by potrace 1.11, written by Peter Selinger 2001-2013
<rdf:RDF>
  <cc:Work
     rdf:about="">
    <dc:format>image/svg+xml</dc:format>
    <dc:type
       rdf:resource="http://purl.org/dc/dcmitype/StillImage" />
  </cc:Work>
</rdf:RDF>
</metadata>
  <g
     transform="translate(0.000000,500.000000) scale(0.100000,-0.100000)"
     fill="#000000"
     stroke="none"
     id="g57">
    <path
       d="M2355 4869 c-491 -52 -961 -270 -1325 -616 -350 -333 -597 -773 -695 -1243 -51 -243 -57 -266 -97 -349 -25 -52 -58 -101 -87 -130 l-46 -47 51 -50 c79 -76 116 -164 158 -374 58 -287 112 -453 223 -675 435 -877 1356 -1390 2297 -1280 755 88 1415 547 1775 1235 130 249 212 502 258 800 13 85 18 175 18 345 0 170 -5 260 -18 345 -46 298 -128 551 -258 800 -405 773 -1195 1257 -2039 1249 -74 -1 -171 -5 -215 -10z m349 -245 c30 -11 16 -40 -72 -150 -107 -134 -233 -321 -301 -447 l-51 -94 -98 -6 c-327 -20 -624 -158 -868 -401 -305 -306 -455 -714 -423 -1152 27 -364 169 -675 423 -930 244 -243 541 -381 868 -401 l98 -6 51 -94 c68 -126 194 -313 301 -447 48 -60 88 -118 88 -128 0 -27 -37 -32 -204 -25 -539 22 -1005 231 -1387 623 -393 404 -609 943 -609 1519 0 885 520 1674 1318 2000 131 53 338 108 467 124 50 6 101 13 115 15 44 6 268 6 284 0z m517 -100 c301 -100 616 -303 839 -542 301 -320 484 -696 562 -1152 31 -179 31 -511 0 -690 -78 -456 -261 -832 -562 -1152 -241 -257 -592 -475 -908 -563 -93 -26 -128 -10 -233 108 -104 118 -217 267 -291 384 -84 134 -82 141 55 185 356 113 659 375 827 713 115 231 155 405 155 670 0 265 -40 439 -155 670 -168 338 -471 600 -827 713 -136 44 -138 51 -59 180 123 197 344 463 411 493 54 25 61 24 186 -17z m-1088 -875 c7 -12 -3 -57 -40 -170 -28 -85 -61 -198 -73 -252 -25 -109 -53 -150 -112 -162 -18 -4 -66 -23 -107 -42 -163 -77 -285 -248 -318 -442 -14 -85 -14 -103 0 -189 32 -196 154 -367 318 -445 41 -19 89 -38 107 -42 59 -12 87 -53 112 -162 12 -54 45 -167 73 -252 57 -177 56 -188 -14 -183 -62 4 -240 66 -329 113 -349 188 -591 565 -618 959 -25 371 87 693 329 945 161 168 327 265 554 326 80 21 104 21 118 -2z m447 -10 c175 -48 360 -159 500 -299 466 -466 466 -1244 0 -1710 -144 -145 -333 -256 -513 -302 -96 -25 -127 -21 -159 22 -27 37 -94 224 -135 379 -33 127 -34 136 -20 166 10 21 36 44 74 65 124 70 235 215 279 365 24 81 24 239 0 320 -44 150 -155 295 -279 365 -34 19 -64 44 -73 62 -14 28 -14 37 0 97 57 228 134 440 173 471 32 25 60 25 153 -1z m-385 -841 c212 -110 255 -401 83 -564 -74 -72 -118 -89 -228 -89 -84 0 -101 3 -146 27 -200 105 -249 379 -97 548 75 83 142 111 258 106 63 -2 91 -8 130 -28z"
       id="path55" />
  </g>
  <path
     style="fill:#ffffff;stroke-width:0.7898894"
     d="M 323.38073,619.83504 C 265.72502,614.89607 215.00217,593.78241 170.94036,556.38092 119.98714,513.12972 85.552676,452.74776 74.212467,386.76537 c -3.43109,-19.96361 -3.97705,-26.93066 -3.98284,-50.8254 -0.0058,-24.05897 0.616138,-32.13297 3.976099,-51.61529 8.224116,-47.68652 28.143404,-92.18723 58.570334,-130.84917 6.39622,-8.12734 22.33279,-25.02984 31.44195,-33.34767 26.06837,-23.803757 59.17247,-43.632707 91.78583,-54.97859 31.16852,-10.843238 72.91869,-17.184379 98.57752,-14.97225 6.30409,0.543495 7.13503,0.794624 7.33885,2.217973 0.25318,1.76799 -4.0526,8.092503 -17.554,25.784112 -10.27245,13.460526 -24.93307,35.508205 -31.97343,48.083905 -2.78508,4.97479 -5.89,10.52116 -6.89982,12.32529 l -1.83603,3.28022 -8.50304,0.53153 c -13.2567,0.8287 -29.00256,3.30965 -39.75264,6.26353 -60.93847,16.74448 -111.50348,67.83016 -129.86921,131.20647 -9.50623,32.80401 -9.95596,71.84648 -1.22415,106.27224 15.97643,62.98814 66.13093,116.22622 126.82634,134.62382 14.18541,4.29979 34.04815,7.4893 46.85625,7.52404 2.452,0.006 4.83204,0.27324 5.28897,0.59242 0.45695,0.31918 3.78018,5.91208 7.38497,12.42867 8.61199,15.56842 21.66481,35.2841 35.30882,53.33232 17.59798,23.27853 17.90484,23.82927 14.08592,25.28122 -2.36606,0.89958 -25.79887,0.84226 -36.67843,-0.0897 z"
     id="path65"
     inkscape:connector-curvature="0"
     transform="scale(0.74999998)" />
  <path
     style="fill:#ffffff;stroke-width:0.7898894"
     d="m 268.08847,489.97086 c -28.31594,-7.82967 -48.50596,-19.10051 -67.82037,-37.85993 -14.36322,-13.95049 -24.40221,-27.69813 -32.9196,-45.08091 -11.67137,-23.81961 -16.13555,-43.38079 -16.13377,-70.69511 0.002,-28.16185 4.65804,-49.56035 15.72667,-72.27488 16.51106,-33.88323 45.75289,-62.06323 78.76434,-75.90427 11.02467,-4.62242 25.41302,-8.98004 31.5468,-9.55417 4.34506,-0.4067 4.93968,-0.27979 6.03833,1.28875 1.53806,2.19589 0.84421,5.40101 -5.73846,26.50776 -2.57432,8.25435 -6.11158,20.46797 -7.86057,27.14138 -1.74899,6.67342 -4.1479,13.91187 -5.33091,16.08545 -2.1102,3.87714 -6.52704,7.71396 -8.89658,7.72829 -2.25002,0.0136 -17.77503,6.78425 -22.52596,9.82385 -20.84014,13.33331 -35.10245,38.52212 -36.4748,64.41851 -1.1966,22.58012 8.59463,47.0438 25.15624,62.85361 8.44004,8.05692 16.84981,12.96796 30.2759,17.68018 11.34607,3.98217 12.58319,5.73702 17.77044,25.20733 1.75866,6.6011 5.51901,19.36642 8.35633,28.3674 5.53987,17.57432 6.86279,24.33201 4.99491,25.51465 -1.88623,1.19426 -7.92132,0.6898 -14.92894,-1.24789 z"
     id="path67"
     inkscape:connector-curvature="0"
     transform="scale(0.74999998)" />
  <path
     style="fill:#ffffff;stroke-width:0.7898894"
     d="m 262.85389,379.7784 c -6.02218,-0.88217 -13.3465,-5.14632 -19.66516,-11.44888 -14.5871,-14.54992 -17.83684,-36.61033 -8.12412,-55.14939 3.73557,-7.13023 13.24156,-16.44896 20.0862,-19.69051 5.43084,-2.57199 5.4404,-2.57335 18.1129,-2.57335 h 12.6792 l 6.21984,3.07401 c 11.35737,5.61312 20.50953,17.06497 23.81946,29.80463 2.75093,10.58808 1.23706,23.70573 -3.8526,33.38289 -3.31914,6.3108 -13.75954,16.74636 -19.57965,19.57057 -6.78677,3.29329 -19.23098,4.56303 -29.69607,3.03003 z"
     id="path69"
     inkscape:connector-curvature="0"
     transform="scale(0.74999998)" />
  <path
     style="fill:#ffffff;stroke-width:0.7898894"
     d="m 323.04785,487.76514 c -2.43026,-2.55584 -4.12655,-5.70881 -6.90555,-12.8357 -8.01618,-20.55789 -16.91807,-52.01469 -16.22201,-57.32409 0.59013,-4.50139 2.57229,-6.6946 11.12402,-12.30845 13.54606,-8.89242 23.19639,-19.46338 30.38852,-33.28756 7.02591,-13.5047 9.34695,-24.8047 8.54441,-41.5986 -0.74183,-15.52334 -4.53521,-26.75001 -13.68497,-40.50125 -6.052,-9.09559 -14.78912,-17.67304 -24.7457,-24.29349 -9.02746,-6.00266 -11.86472,-9.28494 -11.85859,-13.71859 0.0106,-7.68539 12.46251,-48.0347 18.94031,-61.37447 5.60374,-11.53985 8.51138,-12.89645 21.00516,-9.80029 25.4298,6.30191 50.86849,21.13351 71.04001,41.41872 39.84451,40.06904 55.27494,98.99582 40.64025,155.1997 -10.82204,41.56154 -38.76046,77.45218 -76.76138,98.61026 -14.98855,8.3453 -34.96914,15.20191 -44.29928,15.20191 -3.66496,0 -4.24123,-0.27098 -7.2052,-3.3881 z"
     id="path71"
     inkscape:connector-curvature="0"
     transform="scale(0.74999998)" />
  <path
     style="fill:#ffffff;stroke-width:0.7898894"
     d="m 407.01822,610.17186 c -3.94718,-1.47302 -6.5704,-3.49796 -12.64055,-9.75759 -15.66501,-16.15402 -42.08853,-51.50692 -49.0182,-65.5831 -2.70139,-5.4873 -2.60515,-7.97873 0.38385,-9.9372 1.01421,-0.66454 7.1499,-3.05143 13.63487,-5.30421 22.05232,-7.66063 43.95485,-19.83946 60.27334,-33.51478 6.59898,-5.53012 21.51824,-20.58384 26.8342,-27.07605 9.70277,-11.84967 21.34519,-31.70706 28.38546,-48.41441 10.34032,-24.53873 13.83614,-43.46232 13.86231,-75.0395 0.0274,-33.09251 -3.81236,-52.76139 -15.42032,-78.98894 -23.30433,-52.65486 -63.3516,-88.92941 -118.09877,-106.97305 -3.56177,-1.1739 -7.64945,-2.93485 -9.08373,-3.91322 -4.00888,-2.7346 -3.53099,-5.78607 2.46237,-15.72289 11.25882,-18.66681 30.29332,-43.317135 44.69289,-57.87881 9.2484,-9.352514 10.70685,-10.516561 14.68015,-11.716814 5.12799,-1.549058 6.66687,-1.311285 20.07498,3.101793 41.29957,13.593133 84.91212,41.876401 114.4446,74.218701 36.64633,40.133 59.35939,84.53351 70.74185,138.28935 3.84874,18.17639 4.83051,27.5744 5.31677,50.8951 0.49933,23.94676 -0.413,41.11361 -2.97352,55.95141 -13.5309,78.40918 -53.60798,143.06218 -116.47643,187.90162 -22.37187,15.95623 -52.94393,31.34218 -75.00271,37.7465 -9.00354,2.614 -13.46555,3.06248 -17.07341,1.71609 z"
     id="path73"
     inkscape:connector-curvature="0"
     transform="scale(0.74999998)" />
</svg>
